<svg xmlns="http://www.w3.org/2000/svg" xmlns:xlink="http://www.w3.org/1999/xlink" version="1.1" viewBox="0 0 48 48" xml:space="preserve" style="enable-background:new 0 0 48 48"><style type="text/css">.st1{fill:none;stroke:#303030;stroke-width:.7;stroke-linecap:round;stroke-linejoin:round;stroke-miterlimit:10}</style><g id="Icons"><g><path d="M30.37337,33.9599l-5.96166-8.79194c-0.19733-0.29102-0.62609-0.29102-0.82342,0l-5.96166,8.79194 c-0.27508,0.40568-0.90915,0.21098-0.90915-0.27917V14.31835c0-0.27473,0.22271-0.49744,0.49744-0.49744h13.57016 c0.27473,0,0.49744,0.22271,0.49744,0.49744v19.36238C31.28252,34.17088,30.64845,34.36558,30.37337,33.9599z" class="st1"/><g><line x1="19.164" x2="24.199" y1="16.127" y2="16.127" class="st1"/><line x1="25.542" x2="26.59" y1="16.127" y2="16.127" class="st1"/></g><path d="M30.37337,33.9599l-5.96166-8.79194c-0.19733-0.29102-0.62609-0.29102-0.82342,0l-5.96166,8.79194 c-0.27508,0.40568-0.90915,0.21098-0.90915-0.27917V14.31835c0-0.27473,0.22271-0.49744,0.49744-0.49744h13.57016 c0.27473,0,0.49744,0.22271,0.49744,0.49744v19.36238C31.28252,34.17088,30.64845,34.36558,30.37337,33.9599z" class="st1"/></g></g></svg>